<mxfile host="app.diagrams.net" agent="Mozilla/5.0 (Windows NT 10.0; Win64; x64) AppleWebKit/537.36 (KHTML, like Gecko) Chrome/135.0.0.0 Safari/537.36" version="26.2.14">
  <diagram name="PÃ¡gina-1" id="5x9XDhcGxlXRKqn8Yzqd">
    <mxGraphModel dx="1026" dy="516" grid="1" gridSize="10" guides="1" tooltips="1" connect="1" arrows="1" fold="1" page="1" pageScale="1" pageWidth="827" pageHeight="1169" math="0" shadow="0">
      <root>
        <mxCell id="0" />
        <mxCell id="1" parent="0" />
        <mxCell id="n366VSGjI_HjgEOfrgP5-3" value="FIN" style="strokeWidth=2;html=1;shape=mxgraph.flowchart.start_2;whiteSpace=wrap;" vertex="1" parent="1">
          <mxGeometry x="380" y="1069" width="100" height="100" as="geometry" />
        </mxCell>
        <mxCell id="n366VSGjI_HjgEOfrgP5-46" value="" style="edgeStyle=orthogonalEdgeStyle;rounded=0;orthogonalLoop=1;jettySize=auto;html=1;" edge="1" parent="1" source="n366VSGjI_HjgEOfrgP5-22" target="n366VSGjI_HjgEOfrgP5-25">
          <mxGeometry relative="1" as="geometry" />
        </mxCell>
        <mxCell id="n366VSGjI_HjgEOfrgP5-22" value="INICIO" style="strokeWidth=2;html=1;shape=mxgraph.flowchart.start_2;whiteSpace=wrap;" vertex="1" parent="1">
          <mxGeometry x="380" y="140" width="100" height="100" as="geometry" />
        </mxCell>
        <mxCell id="n366VSGjI_HjgEOfrgP5-35" value="" style="edgeStyle=orthogonalEdgeStyle;rounded=0;orthogonalLoop=1;jettySize=auto;html=1;" edge="1" parent="1" source="n366VSGjI_HjgEOfrgP5-23" target="n366VSGjI_HjgEOfrgP5-27">
          <mxGeometry relative="1" as="geometry" />
        </mxCell>
        <mxCell id="n366VSGjI_HjgEOfrgP5-23" value="&lt;span style=&quot;color: rgb(26, 26, 26); background-color: transparent;&quot;&gt;Mostrar mensaje:&amp;nbsp;&lt;/span&gt;&lt;div&gt;&lt;span style=&quot;color: rgb(26, 26, 26); background-color: transparent;&quot;&gt;&quot;Ingrese el monto&amp;nbsp;&lt;/span&gt;&lt;/div&gt;&lt;div&gt;&lt;span style=&quot;color: rgb(26, 26, 26); background-color: transparent;&quot;&gt;a covertir: &quot;&lt;/span&gt;&lt;/div&gt;" style="shape=parallelogram;html=1;strokeWidth=2;perimeter=parallelogramPerimeter;whiteSpace=wrap;rounded=1;arcSize=12;size=0.23;" vertex="1" parent="1">
          <mxGeometry x="321" y="400" width="218" height="90" as="geometry" />
        </mxCell>
        <mxCell id="n366VSGjI_HjgEOfrgP5-45" value="" style="edgeStyle=orthogonalEdgeStyle;rounded=0;orthogonalLoop=1;jettySize=auto;html=1;" edge="1" parent="1" source="n366VSGjI_HjgEOfrgP5-25" target="n366VSGjI_HjgEOfrgP5-23">
          <mxGeometry relative="1" as="geometry" />
        </mxCell>
        <mxCell id="n366VSGjI_HjgEOfrgP5-25" value="&lt;span style=&quot;background-color: transparent; color: rgb(26, 26, 26);&quot;&gt;Definir tipo_cambio_eur_a_mxn = 23.70&lt;br class=&quot;soft-break&quot;&gt;    Definir tipo_cambio_usd_a_mxn = 20.75&lt;/span&gt;" style="shape=parallelogram;html=1;strokeWidth=2;perimeter=parallelogramPerimeter;whiteSpace=wrap;rounded=1;arcSize=12;size=0.23;" vertex="1" parent="1">
          <mxGeometry x="267.5" y="270" width="325" height="90" as="geometry" />
        </mxCell>
        <mxCell id="n366VSGjI_HjgEOfrgP5-26" value="&lt;span style=&quot;color: rgb(9, 9, 9); background-color: transparent;&quot;&gt;Mostrar&lt;/span&gt;&lt;div&gt;&lt;span style=&quot;color: rgb(9, 9, 9); background-color: transparent;&quot;&gt;&amp;nbsp;&quot;El resultado de la conversion&lt;/span&gt;&lt;/div&gt;&lt;div&gt;&lt;span style=&quot;color: rgb(9, 9, 9); background-color: transparent;&quot;&gt;&amp;nbsp;de&lt;/span&gt;&lt;span style=&quot;background-color: transparent; color: light-dark(rgb(9, 9, 9), rgb(229, 229, 229));&quot;&gt;&amp;nbsp;EUR a MXN es: &quot;,&amp;nbsp;&lt;/span&gt;&lt;div&gt;&lt;span style=&quot;color: rgb(9, 9, 9); background-color: transparent;&quot;&gt;resultado&lt;/span&gt;&lt;/div&gt;&lt;/div&gt;" style="shape=parallelogram;html=1;strokeWidth=2;perimeter=parallelogramPerimeter;whiteSpace=wrap;rounded=1;arcSize=12;size=0.23;" vertex="1" parent="1">
          <mxGeometry x="770" y="565" width="200" height="90" as="geometry" />
        </mxCell>
        <mxCell id="n366VSGjI_HjgEOfrgP5-36" value="" style="edgeStyle=orthogonalEdgeStyle;rounded=0;orthogonalLoop=1;jettySize=auto;html=1;" edge="1" parent="1" source="n366VSGjI_HjgEOfrgP5-27" target="n366VSGjI_HjgEOfrgP5-28">
          <mxGeometry relative="1" as="geometry" />
        </mxCell>
        <mxCell id="n366VSGjI_HjgEOfrgP5-41" value="" style="edgeStyle=orthogonalEdgeStyle;rounded=0;orthogonalLoop=1;jettySize=auto;html=1;" edge="1" parent="1" source="n366VSGjI_HjgEOfrgP5-27" target="n366VSGjI_HjgEOfrgP5-30">
          <mxGeometry relative="1" as="geometry" />
        </mxCell>
        <mxCell id="n366VSGjI_HjgEOfrgP5-27" value="&lt;span style=&quot;background-color: transparent; color: rgb(26, 26, 26);&quot;&gt;Si tipo_conversion&amp;nbsp;&lt;/span&gt;&lt;div&gt;&lt;span style=&quot;background-color: transparent; color: rgb(26, 26, 26);&quot;&gt;es &quot;EUR&quot;&lt;/span&gt;&lt;/div&gt;" style="strokeWidth=2;html=1;shape=mxgraph.flowchart.decision;whiteSpace=wrap;" vertex="1" parent="1">
          <mxGeometry x="350" y="530" width="160" height="160" as="geometry" />
        </mxCell>
        <mxCell id="n366VSGjI_HjgEOfrgP5-37" value="" style="edgeStyle=orthogonalEdgeStyle;rounded=0;orthogonalLoop=1;jettySize=auto;html=1;" edge="1" parent="1" source="n366VSGjI_HjgEOfrgP5-28" target="n366VSGjI_HjgEOfrgP5-34">
          <mxGeometry relative="1" as="geometry" />
        </mxCell>
        <mxCell id="n366VSGjI_HjgEOfrgP5-39" value="" style="edgeStyle=orthogonalEdgeStyle;rounded=0;orthogonalLoop=1;jettySize=auto;html=1;" edge="1" parent="1" source="n366VSGjI_HjgEOfrgP5-28" target="n366VSGjI_HjgEOfrgP5-32">
          <mxGeometry relative="1" as="geometry" />
        </mxCell>
        <mxCell id="n366VSGjI_HjgEOfrgP5-28" value="&lt;span style=&quot;background-color: transparent; color: rgb(26, 26, 26);&quot;&gt;Si tipo_conversion&amp;nbsp;&lt;/span&gt;&lt;div&gt;&lt;span style=&quot;background-color: transparent; color: rgb(26, 26, 26);&quot;&gt;es &quot;EUR&quot;&lt;/span&gt;&lt;/div&gt;" style="strokeWidth=2;html=1;shape=mxgraph.flowchart.decision;whiteSpace=wrap;" vertex="1" parent="1">
          <mxGeometry x="350" y="730" width="160" height="160" as="geometry" />
        </mxCell>
        <mxCell id="n366VSGjI_HjgEOfrgP5-42" value="" style="edgeStyle=orthogonalEdgeStyle;rounded=0;orthogonalLoop=1;jettySize=auto;html=1;" edge="1" parent="1" source="n366VSGjI_HjgEOfrgP5-30" target="n366VSGjI_HjgEOfrgP5-26">
          <mxGeometry relative="1" as="geometry" />
        </mxCell>
        <mxCell id="n366VSGjI_HjgEOfrgP5-30" value="&lt;span style=&quot;color: rgb(26, 26, 26); background-color: transparent;&quot;&gt;calcular resultado = monto_a_convertir * tipo_cambio_eur_a_mxn&lt;/span&gt;" style="rounded=1;whiteSpace=wrap;html=1;absoluteArcSize=1;arcSize=14;strokeWidth=2;" vertex="1" parent="1">
          <mxGeometry x="555" y="560" width="155" height="100" as="geometry" />
        </mxCell>
        <mxCell id="n366VSGjI_HjgEOfrgP5-44" style="edgeStyle=orthogonalEdgeStyle;rounded=0;orthogonalLoop=1;jettySize=auto;html=1;" edge="1" parent="1" source="n366VSGjI_HjgEOfrgP5-31">
          <mxGeometry relative="1" as="geometry">
            <mxPoint x="1080" y="810" as="targetPoint" />
          </mxGeometry>
        </mxCell>
        <mxCell id="n366VSGjI_HjgEOfrgP5-31" value="&lt;span style=&quot;color: rgb(9, 9, 9); background-color: transparent;&quot;&gt;Mostrar&lt;/span&gt;&lt;div&gt;&lt;span style=&quot;color: rgb(9, 9, 9); background-color: transparent;&quot;&gt;&amp;nbsp;&quot;El resultado de la conversion&lt;/span&gt;&lt;/div&gt;&lt;div&gt;&lt;span style=&quot;color: rgb(9, 9, 9); background-color: transparent;&quot;&gt;&amp;nbsp;de&lt;/span&gt;&lt;span style=&quot;background-color: transparent; color: light-dark(rgb(9, 9, 9), rgb(229, 229, 229));&quot;&gt;&amp;nbsp;USD a MXN es: &quot;,&amp;nbsp;&lt;/span&gt;&lt;div&gt;&lt;span style=&quot;color: rgb(9, 9, 9); background-color: transparent;&quot;&gt;resultado&lt;/span&gt;&lt;/div&gt;&lt;/div&gt;" style="shape=parallelogram;html=1;strokeWidth=2;perimeter=parallelogramPerimeter;whiteSpace=wrap;rounded=1;arcSize=12;size=0.23;" vertex="1" parent="1">
          <mxGeometry x="770" y="765" width="200" height="90" as="geometry" />
        </mxCell>
        <mxCell id="n366VSGjI_HjgEOfrgP5-40" value="" style="edgeStyle=orthogonalEdgeStyle;rounded=0;orthogonalLoop=1;jettySize=auto;html=1;" edge="1" parent="1" source="n366VSGjI_HjgEOfrgP5-32" target="n366VSGjI_HjgEOfrgP5-31">
          <mxGeometry relative="1" as="geometry" />
        </mxCell>
        <mxCell id="n366VSGjI_HjgEOfrgP5-32" value="&lt;span style=&quot;color: rgb(26, 26, 26); background-color: transparent;&quot;&gt;calcular resultado = monto_a_convertir * tipo_cambio_usdf_a_mxn&lt;/span&gt;" style="rounded=1;whiteSpace=wrap;html=1;absoluteArcSize=1;arcSize=14;strokeWidth=2;" vertex="1" parent="1">
          <mxGeometry x="555" y="760" width="155" height="100" as="geometry" />
        </mxCell>
        <mxCell id="n366VSGjI_HjgEOfrgP5-38" value="" style="edgeStyle=orthogonalEdgeStyle;rounded=0;orthogonalLoop=1;jettySize=auto;html=1;" edge="1" parent="1" source="n366VSGjI_HjgEOfrgP5-34" target="n366VSGjI_HjgEOfrgP5-3">
          <mxGeometry relative="1" as="geometry" />
        </mxCell>
        <mxCell id="n366VSGjI_HjgEOfrgP5-34" value="&lt;span style=&quot;color: rgb(9, 9, 9); background-color: transparent;&quot;&gt;Mostrar:&lt;/span&gt;&lt;div&gt;&lt;span style=&quot;color: rgb(9, 9, 9); background-color: transparent;&quot;&gt;&amp;nbsp;&quot;Mo esta disponible tipo de conversion actualmente&quot;&lt;/span&gt;&lt;/div&gt;" style="shape=parallelogram;html=1;strokeWidth=2;perimeter=parallelogramPerimeter;whiteSpace=wrap;rounded=1;arcSize=12;size=0.23;" vertex="1" parent="1">
          <mxGeometry x="330" y="930" width="200" height="90" as="geometry" />
        </mxCell>
        <mxCell id="n366VSGjI_HjgEOfrgP5-43" style="edgeStyle=orthogonalEdgeStyle;rounded=0;orthogonalLoop=1;jettySize=auto;html=1;entryX=1;entryY=0.5;entryDx=0;entryDy=0;entryPerimeter=0;" edge="1" parent="1" source="n366VSGjI_HjgEOfrgP5-26" target="n366VSGjI_HjgEOfrgP5-3">
          <mxGeometry relative="1" as="geometry">
            <Array as="points">
              <mxPoint x="1080" y="610" />
              <mxPoint x="1080" y="1119" />
            </Array>
          </mxGeometry>
        </mxCell>
      </root>
    </mxGraphModel>
  </diagram>
</mxfile>
